<?xml version="1.0" standalone="no"?>
<svg xmlns:xlink="http://www.w3.org/1999/xlink" xmlns="http://www.w3.org/2000/svg" width="1805" height="799"><defs><marker id="modelerCanvasArrow" viewBox="0 -5 10 10" refX="5" refY="0" markerWidth="4" markerHeight="4" orient="auto"><path d="M0,-5L10,0L0,5" class="arrowHead"/></marker></defs><g transform="translate(35,41) scale(1)"><g class="grid"/><g id="relationshiptype_Rel18" class="relationshipType"><path class="relationshipLine arrow" d="M714.23,422.691C722.609,447.828,730.988,472.965,739.368,498.103C747.747,523.24,756.126,548.377,764.505,573.515" style="fill: none; stroke: black; stroke-width: 3;" marker-end="url(#modelerCanvasArrow)"/><title class="relationshipTypeTooltip">ON_DATE</title><text class="displayText" x="740" y="500" text-anchor="middle" baseline-shift="30%" alignment-baseline="alphabetic" font-family="Roboto, sans-serif" font-size="14" style="fill: black;" transform="rotate(71.56505117707799 740 500)">ON_DATE</text></g><g id="relationshiptype_Rel17" class="relationshipType"><path class="relationshipLine arrow" d="M597.726,141.362C611.555,173.628,625.384,205.895,639.212,238.162C653.041,270.428,666.869,302.695,680.698,334.962" style="fill: none; stroke: black; stroke-width: 3;" marker-end="url(#modelerCanvasArrow)"/><title class="relationshipTypeTooltip">VACCINATED_ON</title><text class="displayText" x="640" y="240" text-anchor="middle" baseline-shift="30%" alignment-baseline="alphabetic" font-family="Roboto, sans-serif" font-size="14" style="fill: black;" transform="rotate(66.80140948635182 640 240)">VACCINATED_ON</text></g><g id="relationshiptype_Rel16" class="relationshipType"><path class="relationshipLine arrow" d="M1360.137,181.794C1261.937,239.087,1163.737,296.38,1072.986,363.711C982.235,431.043,898.931,508.414,815.628,585.784" style="fill: none; stroke: black; stroke-width: 3;" marker-end="url(#modelerCanvasArrow)"/><title class="relationshipTypeTooltip">STARTED_ON</title><text class="displayText" x="1071.3797836195793" y="364.9031866176937" text-anchor="middle" baseline-shift="30%" alignment-baseline="alphabetic" font-family="Roboto, sans-serif" font-size="14" style="fill: black;" transform="rotate(-36.57303097851931 1071.3797836195793 364.9031866176937)">STARTED_ON</text></g><g id="relationshiptype_Rel15" class="relationshipType"><path class="relationshipLine arrow" d="M1367.585,191.832C1284.281,269.203,1200.978,346.573,1110.226,413.905C1019.475,481.237,921.275,538.53,823.076,595.823" style="fill: none; stroke: black; stroke-width: 3;" marker-end="url(#modelerCanvasArrow)"/><title class="relationshipTypeTooltip">AUTHORIZATION_ON</title><text class="displayText" x="1108.6202163804207" y="415.0968133823063" text-anchor="middle" baseline-shift="30%" alignment-baseline="alphabetic" font-family="Roboto, sans-serif" font-size="14" style="fill: black;" transform="rotate(-36.57303097851931 1108.6202163804207 415.0968133823063)">AUTHORIZATION_ON</text></g><g id="relationshiptype_Rel14" class="relationshipType"><path class="relationshipLine arrow" d="M624.88,103.284C745.922,112.141,866.964,120.997,988.005,129.854C1109.047,138.711,1230.089,147.567,1351.131,156.424" style="fill: none; stroke: black; stroke-width: 3;" marker-end="url(#modelerCanvasArrow)"/><title class="relationshipTypeTooltip">USES</title><text class="displayText" x="990" y="130" text-anchor="middle" baseline-shift="30%" alignment-baseline="alphabetic" font-family="Roboto, sans-serif" font-size="14" style="fill: black;" transform="rotate(4.1849161251184155 990 130)">USES</text></g><g id="relationshiptype_Rel13" class="relationshipType"><path class="relationshipLine arrow" d="M480.717,479.161C523.208,499.157,565.699,519.153,608.19,539.148C650.682,559.144,693.173,579.14,735.664,599.136" style="fill: none; stroke: black; stroke-width: 3;" marker-end="url(#modelerCanvasArrow)"/><title class="relationshipTypeTooltip">ON_DATE</title><text class="displayText" x="610" y="540" text-anchor="middle" baseline-shift="30%" alignment-baseline="alphabetic" font-family="Roboto, sans-serif" font-size="14" style="fill: black;" transform="rotate(25.20112364547507 610 540)">ON_DATE</text></g><g id="relationshiptype_Rel12" class="relationshipType"><path class="relationshipLine arrow" d="M563.69,141.94C546.035,187.339,528.38,232.737,510.725,278.136C493.07,323.535,475.415,368.933,457.76,414.332" style="fill: none; stroke: black; stroke-width: 3;" marker-end="url(#modelerCanvasArrow)"/><title class="relationshipTypeTooltip">REPORTED_ON</title><text class="displayText" x="510" y="280" text-anchor="middle" baseline-shift="30%" alignment-baseline="alphabetic" font-family="Roboto, sans-serif" font-size="14" style="fill: black;" transform="rotate(-68.74949449286675 510 280)">REPORTED_ON</text></g><g id="relationshiptype_Rel1" class="relationshipType"><path class="relationshipLine arrow" d="M537.709,115.378C515.766,123.358,493.823,131.337,471.88,139.317C449.936,147.296,427.993,155.275,406.05,163.255" style="fill: none; stroke: black; stroke-width: 3;" marker-end="url(#modelerCanvasArrow)"/><title class="relationshipTypeTooltip">BELONGS</title><text class="displayText" x="470" y="140" text-anchor="middle" baseline-shift="30%" alignment-baseline="alphabetic" font-family="Roboto, sans-serif" font-size="14" style="fill: black;" transform="rotate(-19.98310652189997 470 140)">BELONGS</text></g><g id="nodelabel_Node10" class="nodeLabel"><circle class="hoverCircle" cy="160" cx="1400" r="60" style="opacity: 0; fill: lightgray;"/><circle class="displayCircle" cy="160" cx="1400" r="40" style="fill: rgb(96, 125, 139); stroke: rgb(27, 56, 68); stroke-width: 4;"/><text class="displayText" x="1400" y="160" pointer-events="none" text-anchor="middle" alignment-baseline="central" font-family="Roboto, sans-serif" font-size="14" style="fill: white;"><tspan x="1400" y="160" dy="0.34em">Vaccine</tspan></text><g class="annotation" transform="translate(1435.8198051533946,42.18019484660536)"><path class="annotationBubble" stroke-width="2" d="M10,0L169.031,0 C172.198,0.167,175.365,0.333,177.031,2C178.698,3.667,178.865,6.833,179.031,10 L179.031,72 C178.865,75.167,178.698,78.333,177.031,80C175.365,81.667,172.198,81.833,169.031,82 L10,82 L6,82L-4,86L0,76L0,72 L0,10 C0.167,6.833,0.333,3.667,2,2C3.667,0.333,6.833,0.167,10,0Z" style="fill: white; stroke: black;"/><g class="annotationColoredBackgroundRectangles"><rect x="6" y="5.399999999999999" width="133.03125" height="21.6" rx="3" style="fill: white; stroke: white; stroke-width: 1;"/><rect x="6" y="28.6" width="122.71875" height="21.6" rx="3" style="fill: white; stroke: white; stroke-width: 1;"/><rect x="6" y="51.800000000000004" width="112.8125" height="21.6" rx="3" style="fill: white; stroke: white; stroke-width: 1;"/></g><text class="annotationText" x="10" y="25" pointer-events="none" font-family="Roboto, sans-serif" font-size="14" style="fill: black;"><tspan x="10" y="25" text-anchor="start" style="fill: black;" dy="-0.25em">(*) product : String</tspan><tspan x="10" y="25" text-anchor="start" style="fill: black;" dy="1.45em">company : String</tspan><tspan x="10" y="25" text-anchor="start" style="fill: black;" dy="3.15em">vaccine : String</tspan></text></g></g><g id="nodelabel_Node9" class="nodeLabel"><circle class="hoverCircle" cy="460" cx="440" r="60" style="opacity: 0; fill: lightgray;"/><circle class="displayCircle" cy="460" cx="440" r="40" style="fill: rgb(255, 87, 34); stroke: rgb(162, 0, 0); stroke-width: 4;"/><text class="displayText" x="440" y="460" pointer-events="none" text-anchor="middle" alignment-baseline="central" font-family="Roboto, sans-serif" font-size="14" style="fill: white;"><tspan x="440" y="460" dy="0.34em">CovidStats</tspan></text><g class="annotation" transform="translate(188.57081984660536,495.81980515339467)"><path class="annotationBubble" stroke-width="2" d="M10,0L205.609,0 L209.609,0L219.609,-4L215.609,6L215.609,10 L215.609,96 C215.443,99.167,215.276,102.333,213.609,104C211.943,105.667,208.776,105.833,205.609,106 L10,106 C6.833,105.833,3.667,105.667,2,104C0.333,102.333,0.167,99.167,0,96 L0,10 C0.167,6.833,0.333,3.667,2,2C3.667,0.333,6.833,0.167,10,0Z" style="fill: white; stroke: black;"/><g class="annotationColoredBackgroundRectangles"><rect x="6" y="5.399999999999999" width="180.328125" height="21.6" rx="3" style="fill: white; stroke: white; stroke-width: 1;"/><rect x="6" y="28.6" width="185.609375" height="21.6" rx="3" style="fill: white; stroke: white; stroke-width: 1;"/><rect x="6" y="51.800000000000004" width="136.8125" height="21.6" rx="3" style="fill: white; stroke: white; stroke-width: 1;"/><rect x="6" y="75" width="142.09375" height="21.6" rx="3" style="fill: white; stroke: white; stroke-width: 1;"/></g><text class="annotationText" x="10" y="25" pointer-events="none" font-family="Roboto, sans-serif" font-size="14" style="fill: black;"><tspan x="10" y="25" text-anchor="start" style="fill: black;" dy="-0.25em">cumulativeCases : Integer</tspan><tspan x="10" y="25" text-anchor="start" style="fill: black;" dy="1.45em">cumulativeDeaths : Integer</tspan><tspan x="10" y="25" text-anchor="start" style="fill: black;" dy="3.15em">newCases : Integer</tspan><tspan x="10" y="25" text-anchor="start" style="fill: black;" dy="4.85em">newDeaths : Integer</tspan></text></g></g><g id="nodelabel_Node3" class="nodeLabel"><circle class="hoverCircle" cy="380" cx="700" r="60" style="opacity: 0; fill: lightgray;"/><circle class="displayCircle" cy="380" cx="700" r="40" style="fill: rgb(96, 125, 139); stroke: rgb(27, 56, 68); stroke-width: 4;"/><text class="displayText" x="700" y="380" pointer-events="none" text-anchor="middle" alignment-baseline="central" font-family="Roboto, sans-serif" font-size="14" style="fill: white;"><tspan x="700" y="380" dy="0.00em">Vaccina-</tspan><tspan x="700" y="380" dy="1.10em">tionStats</tspan></text><g class="annotation" transform="translate(735.8198051533947,142.18019484660536)"><path class="annotationBubble" stroke-width="2" d="M10,0L327.109,0 C330.276,0.167,333.443,0.333,335.109,2C336.776,3.667,336.943,6.833,337.109,10 L337.109,192 C336.943,195.167,336.776,198.333,335.109,200C333.443,201.667,330.276,201.833,327.109,202 L10,202 L6,202L-4,206L0,196L0,192 L0,10 C0.167,6.833,0.333,3.667,2,2C3.667,0.333,6.833,0.167,10,0Z" style="fill: white; stroke: black;"/><g class="annotationColoredBackgroundRectangles"><rect x="6" y="5.399999999999999" width="230.03125" height="21.6" rx="3" style="fill: white; stroke: white; stroke-width: 1;"/><rect x="6" y="28.6" width="275.40625" height="21.6" rx="3" style="fill: white; stroke: white; stroke-width: 1;"/><rect x="6" y="51.800000000000004" width="182.515625" height="21.6" rx="3" style="fill: white; stroke: white; stroke-width: 1;"/><rect x="6" y="75" width="227.890625" height="21.6" rx="3" style="fill: white; stroke: white; stroke-width: 1;"/><rect x="6" y="98.19999999999999" width="261.734375" height="21.6" rx="3" style="fill: white; stroke: white; stroke-width: 1;"/><rect x="6" y="121.4" width="307.109375" height="21.6" rx="3" style="fill: white; stroke: white; stroke-width: 1;"/><rect x="6" y="144.6" width="182.421875" height="21.6" rx="3" style="fill: white; stroke: white; stroke-width: 1;"/><rect x="6" y="167.8" width="227.796875" height="21.6" rx="3" style="fill: white; stroke: white; stroke-width: 1;"/></g><text class="annotationText" x="10" y="25" pointer-events="none" font-family="Roboto, sans-serif" font-size="14" style="fill: black;"><tspan x="10" y="25" text-anchor="start" style="fill: black;" dy="-0.25em">personsBoosterAddDose : Integer</tspan><tspan x="10" y="25" text-anchor="start" style="fill: black;" dy="1.45em">personsBoosterAddDosePer100 : Integer</tspan><tspan x="10" y="25" text-anchor="start" style="fill: black;" dy="3.15em">personsLastDose : Integer</tspan><tspan x="10" y="25" text-anchor="start" style="fill: black;" dy="4.85em">personsLastDosePer100 : Integer</tspan><tspan x="10" y="25" text-anchor="start" style="fill: black;" dy="6.55em">personsVaccinated1PlusDose : Integer</tspan><tspan x="10" y="25" text-anchor="start" style="fill: black;" dy="8.25em">personsVaccinated1PlusDosePer100 : Integer</tspan><tspan x="10" y="25" text-anchor="start" style="fill: black;" dy="9.95em">totalVaccinations : Integer</tspan><tspan x="10" y="25" text-anchor="start" style="fill: black;" dy="11.65em">totalVaccinationsPer100 : Integer</tspan></text></g></g><g id="nodelabel_Node2" class="nodeLabel"><circle class="hoverCircle" cy="620" cx="780" r="60" style="opacity: 0; fill: lightgray;"/><circle class="displayCircle" cy="620" cx="780" r="40" style="fill: rgb(255, 235, 59); stroke: rgb(168, 156, 0); stroke-width: 4;"/><text class="displayText" x="780" y="620" pointer-events="none" text-anchor="middle" alignment-baseline="central" font-family="Roboto, sans-serif" font-size="14" style="fill: black;"><tspan x="780" y="620" dy="0.34em">Date</tspan></text><g class="annotation" transform="translate(704.9921875,673)"><path class="annotationBubble" stroke-width="2" d="M10,0L67.008,0L75.008,-8L83.008,0L140.016,0 C143.182,0.167,146.349,0.333,148.016,2C149.682,3.667,149.849,6.833,150.016,10 L150.016,24 C149.849,27.167,149.682,30.333,148.016,32C146.349,33.667,143.182,33.833,140.016,34 L10,34 C6.833,33.833,3.667,33.667,2,32C0.333,30.333,0.167,27.167,0,24 L0,10 C0.167,6.833,0.333,3.667,2,2C3.667,0.333,6.833,0.167,10,0Z" style="fill: white; stroke: black;"/><g class="annotationColoredBackgroundRectangles"><rect x="6" y="5.399999999999999" width="104.015625" height="21.6" rx="3" style="fill: white; stroke: white; stroke-width: 1;"/></g><text class="annotationText" x="10" y="25" pointer-events="none" font-family="Roboto, sans-serif" font-size="14" style="fill: black;"><tspan x="10" y="25" text-anchor="start" style="fill: black;" dy="-0.25em">(*) date : Date</tspan></text></g></g><g id="nodelabel_Node1" class="nodeLabel"><circle class="hoverCircle" cy="180" cx="360" r="60" style="opacity: 0; fill: lightgray;"/><circle class="displayCircle" cy="180" cx="360" r="40" style="fill: rgb(63, 81, 181); stroke: rgb(0, 20, 104); stroke-width: 4;"/><text class="displayText" x="360" y="180" pointer-events="none" text-anchor="middle" alignment-baseline="central" font-family="Roboto, sans-serif" font-size="14" style="fill: white;"><tspan x="360" y="180" dy="0.34em">Region</tspan></text><g class="annotation" transform="translate(141.34375,163)"><path class="annotationBubble" stroke-width="2" d="M10,0L155.656,0 C158.823,0.167,161.99,0.333,163.656,2C165.323,3.667,165.49,6.833,165.656,10 L165.656,9L173.656,17L165.656,25L165.656,24 C165.49,27.167,165.323,30.333,163.656,32C161.99,33.667,158.823,33.833,155.656,34 L10,34 C6.833,33.833,3.667,33.667,2,32C0.333,30.333,0.167,27.167,0,24 L0,10 C0.167,6.833,0.333,3.667,2,2C3.667,0.333,6.833,0.167,10,0Z" style="fill: white; stroke: black;"/><g class="annotationColoredBackgroundRectangles"><rect x="6" y="5.399999999999999" width="119.65625" height="21.6" rx="3" style="fill: white; stroke: white; stroke-width: 1;"/></g><text class="annotationText" x="10" y="25" pointer-events="none" font-family="Roboto, sans-serif" font-size="14" style="fill: black;"><tspan x="10" y="25" text-anchor="start" style="fill: black;" dy="-0.25em">(*) name : String</tspan></text></g></g><g id="nodelabel_Node0" class="nodeLabel"><circle class="hoverCircle" cy="100" cx="580" r="60" style="opacity: 0; fill: lightgray;"/><circle class="displayCircle" cy="100" cx="580" r="40" style="fill: rgb(63, 81, 181); stroke: rgb(0, 20, 104); stroke-width: 4;"/><text class="displayText" x="580" y="100" pointer-events="none" text-anchor="middle" alignment-baseline="central" font-family="Roboto, sans-serif" font-size="14" style="fill: white;"><tspan x="580" y="100" dy="0.34em">Country</tspan></text><g class="annotation" transform="translate(499.375,-11)"><path class="annotationBubble" stroke-width="2" d="M10,0L151.25,0 C154.417,0.167,157.583,0.333,159.25,2C160.917,3.667,161.083,6.833,161.25,10 L161.25,48 C161.083,51.167,160.917,54.333,159.25,56C157.583,57.667,154.417,57.833,151.25,58 L88.625,58L80.625,66L72.625,58L10,58 C6.833,57.833,3.667,57.667,2,56C0.333,54.333,0.167,51.167,0,48 L0,10 C0.167,6.833,0.333,3.667,2,2C3.667,0.333,6.833,0.167,10,0Z" style="fill: white; stroke: black;"/><g class="annotationColoredBackgroundRectangles"><rect x="6" y="5.399999999999999" width="115.25" height="21.6" rx="3" style="fill: white; stroke: white; stroke-width: 1;"/><rect x="6" y="28.6" width="99.90625" height="21.6" rx="3" style="fill: white; stroke: white; stroke-width: 1;"/></g><text class="annotationText" x="10" y="25" pointer-events="none" font-family="Roboto, sans-serif" font-size="14" style="fill: black;"><tspan x="10" y="25" text-anchor="start" style="fill: black;" dy="-0.25em">(*) code : String</tspan><tspan x="10" y="25" text-anchor="start" style="fill: black;" dy="1.45em">name : String</tspan></text></g></g></g><text pointer-events="none" font-family="Roboto, sans-serif" font-size="14"><tspan id="modelerCanvas_textDimensionHelper"/></text></svg>